<svg xmlns="http://www.w3.org/2000/svg" width="33" height="21" viewBox="0 0 33 21" fill="none"><path d="M32.4893 1.9757C32.1122 1.87727 31.7955 1.79438 31.5994 1.74775C31.4687 1.71667 31.343 1.66486 31.2274 1.58715C29.2867 0.369717 26.7629 -1.24662 24.5608 1.55607C23.1179 3.39 22.0319 8.60166 18.8947 11.3059C18.6685 11.5028 18.4322 11.6841 18.1859 11.8499C18.0702 11.9276 17.9546 11.9949 17.839 12.0468C18.6434 10.8397 18.9752 9.56007 19.2215 8.78816C19.7796 7.04749 19.7645 5.83523 20.2371 4.42093C20.7097 3.01181 21.5996 2.44195 22.2079 2.46785C22.8112 2.49375 22.7157 2.13629 22.0873 1.97052C21.7102 1.87208 21.3935 1.78919 21.1974 1.74257C21.0667 1.71149 20.941 1.65968 20.8253 1.58197C18.8847 0.364535 16.3609 -1.25181 14.1588 1.55089C12.6153 3.51433 11.4741 9.36839 7.78382 11.8447C4.64661 13.9532 3.19364 7.75205 2.37918 7.90229C1.51946 8.06288 0.800506 8.7778 0.151949 10.0574C-0.154733 10.6635 0.0162044 11.4199 0.5441 11.8343C4.355 14.808 7.19558 15.01 9.23678 15.0722C9.9155 15.0929 10.3378 15.6628 10.373 16.357C10.373 16.414 10.4132 19.8073 10.4082 19.8591C10.3479 20.5533 8.4374 20.1544 8.50779 20.719C8.57818 21.2837 9.86522 20.8434 10.4736 20.719C11.0819 20.5947 12.6958 20.9677 13.0577 20.8745C13.1533 20.8486 13.2236 20.7916 13.2538 20.719C13.2588 20.719 13.2689 20.719 13.2739 20.719C13.8823 20.5947 15.4961 20.9677 15.8581 20.8745C16.2251 20.7812 16.2653 20.1751 14.6515 20.201C13.6711 20.2165 13.8068 16.357 13.8471 15.8027C13.8722 15.4918 14.0482 14.8702 14.3146 14.637C14.6364 14.5386 14.9431 14.4246 15.2196 14.2951C15.5967 14.435 15.9637 14.549 16.3106 14.6422C17.5976 14.979 18.6987 15.0411 19.6288 15.067C20.3075 15.0878 20.7298 15.6576 20.765 16.3518C20.765 16.4088 20.8052 19.8021 20.8002 19.8539C20.7399 20.5481 18.8294 20.1492 18.8998 20.7139C18.9702 21.2785 20.2572 20.8382 20.8656 20.7139C21.4739 20.5895 23.0877 20.9625 23.4497 20.8693C23.5452 20.8434 23.6156 20.7864 23.6458 20.7139C23.6508 20.7139 23.6609 20.7139 23.6659 20.7139C24.2743 20.5895 25.8881 20.9625 26.2501 20.8693C26.6171 20.776 26.6573 20.1699 25.0435 20.1958C24.0631 20.2113 24.1988 16.3518 24.2391 15.7975C24.2642 15.4867 24.4402 14.865 24.7066 14.6319C28.3717 13.487 29.1409 10.2232 29.6085 8.77262C30.1666 7.03194 30.1515 5.81969 30.6241 4.40539C31.0967 2.99627 31.9865 2.42641 32.5949 2.45231C33.1982 2.47821 33.1027 2.12075 32.4742 1.95497L32.4893 1.9757ZM18.1708 1.47836C18.578 1.47836 18.9098 1.82028 18.9098 2.23991C18.9098 2.65954 18.578 3.00145 18.1708 3.00145C17.7635 3.00145 17.4317 2.65954 17.4317 2.23991C17.4317 1.82028 17.7635 1.47836 18.1708 1.47836ZM13.1784 16.3674C13.1784 16.4243 13.2186 19.8176 13.2136 19.8694C13.1935 20.1129 12.9371 20.2114 12.6203 20.258C12.4243 20.2217 12.1729 20.2062 11.8561 20.2113C10.8758 20.2269 11.0115 16.3674 11.0517 15.813C11.0819 15.4297 11.2629 15.0774 11.6349 15.0619C11.6701 15.0619 11.7103 15.0619 11.7556 15.0619C12.1025 15.0515 12.4343 15.0256 12.751 14.9893C13.0125 15.3727 13.1533 15.9425 13.1734 16.3725L13.1784 16.3674ZM23.5804 16.3674C23.5804 16.4243 23.6207 19.8176 23.6156 19.8694C23.5955 20.1129 23.3391 20.2114 23.0224 20.258C22.8263 20.2217 22.5749 20.2062 22.2582 20.2113C21.2778 20.2269 21.4136 16.3674 21.4538 15.813C21.484 15.4297 21.6649 15.0774 22.037 15.0619C22.0722 15.0619 22.1124 15.0619 22.1576 15.0619C22.5045 15.0515 22.8364 15.0256 23.1531 14.9893C23.4145 15.3727 23.5553 15.9425 23.5754 16.3725L23.5804 16.3674ZM28.5728 2.94965C28.1958 2.94965 27.884 2.63363 27.884 2.23991C27.884 1.85136 28.1907 1.53017 28.5728 1.53017C28.9499 1.53017 29.2616 1.84618 29.2616 2.23991C29.2616 2.63363 28.9549 2.94965 28.5728 2.94965Z" fill="white"></path></svg>